<?xml version="1.0" encoding="UTF-8"?>
<svg xmlns="http://www.w3.org/2000/svg" xmlns:xlink="http://www.w3.org/1999/xlink" width="208" height="40" viewBox="0 0 208 40">
  <defs>
    <clipPath id="clip-mnymakinelogo">
      <rect width="208" height="40"></rect>
    </clipPath>
  </defs>
  <g id="mnymakinelogo" clip-path="url(#clip-mnymakinelogo)">
    <g id="Group_67936" data-name="Group 67936" transform="translate(-9.001 -17.999)">
      <g id="Group_22009" data-name="Group 22009" transform="translate(16.001 23)">
        <path id="Path_606" data-name="Path 606" d="M511.914,580.811V559.566a4.481,4.481,0,0,1,.743-2.475,4.416,4.416,0,0,1,1.979-1.641,4.371,4.371,0,0,1,1.688-.339h63.209a4.394,4.394,0,0,1,3.119,1.3,4.461,4.461,0,0,1,.956,1.445,4.5,4.5,0,0,1,.336,1.7v21.245a4.481,4.481,0,0,1-.743,2.475,4.438,4.438,0,0,1-1.217,1.229,4.379,4.379,0,0,1-2.45.751H516.324a4.385,4.385,0,0,1-2.45-.751,4.452,4.452,0,0,1-1.624-2,4.485,4.485,0,0,1-.336-1.7Z" transform="translate(-511.914 -555.112)" fill="#f72323"></path>
        <path id="Path_2708" data-name="Path 2708" d="M3.8-16.1c-1.931,0-2.372.735-2.372,2.855V-2.034a.557.557,0,0,0,.63.63h2.96a.557.557,0,0,0,.63-.63v-9.657c0-.147.042-.21.147-.21H5.94c.126,0,.21.042.231.147l2.435,7.6c.672,2.1,1.658,2.75,3.506,2.75H13.5c1.847,0,2.834-.651,3.506-2.75l2.435-7.6c.021-.1.1-.147.231-.147h.147c.1,0,.147.063.147.21v9.657a.557.557,0,0,0,.63.63h2.96a.557.557,0,0,0,.63-.63V-13.245c0-2.12-.441-2.855-2.372-2.855H18.746c-1.617,0-2.309.294-2.876,2.12l-2.6,8.523a.247.247,0,0,1-.252.189h-.294a.247.247,0,0,1-.252-.189L9.844-13.98c-.567-1.826-1.26-2.12-2.876-2.12Zm25.4,0c-1.637,0-2.414.588-2.414,2.855V-2.034a.557.557,0,0,0,.63.63H30.46a.557.557,0,0,0,.63-.63v-9.657c0-.147.042-.21.147-.21h.147a.245.245,0,0,1,.231.147l5.206,8.691C37.6-1.74,38.018-1.4,40.012-1.4h2.456c1.637,0,2.435-.588,2.435-2.855V-15.47a.557.557,0,0,0-.63-.63H41.23a.557.557,0,0,0-.63.63v9.657c0,.147-.042.21-.147.21h-.147a.245.245,0,0,1-.231-.147l-5.164-8.691c-.777-1.323-1.2-1.658-3.191-1.658Zm17.488,0a.319.319,0,0,0-.252.546l7.012,9.825v3.695a.557.557,0,0,0,.63.63h3.149a.557.557,0,0,0,.63-.63V-5.729l7.1-9.825A.319.319,0,0,0,64.7-16.1H60.9a.668.668,0,0,0-.651.336L55.736-9.151l-4.493-6.613a.668.668,0,0,0-.651-.336Z" transform="translate(3.62 23.657)" fill="#fff"></path>
      </g>
      <g id="Group_67916" data-name="Group 67916" transform="translate(93.99 27.618)">
        <path id="Path_7848" data-name="Path 7848" d="M19.616-208.271c-1.668,0-2.08.638-2.08,2.471v11.41a.479.479,0,0,0,.535.535h2.513a.479.479,0,0,0,.535-.535V-204.5c0-.144.041-.206.165-.206h.165a.233.233,0,0,1,.247.144l3.275,8.362c.68,1.751,1.442,2.348,3.028,2.348h1.174c1.586,0,2.348-.6,3.028-2.348l3.275-8.362a.233.233,0,0,1,.247-.144h.185c.1,0,.144.062.144.206v10.112a.479.479,0,0,0,.535.535H39.1a.479.479,0,0,0,.535-.535V-205.8c0-1.833-.412-2.471-2.08-2.471h-2.6c-1.4,0-1.936.268-2.513,1.833l-3.4,9.1a.284.284,0,0,1-.288.206h-.247a.248.248,0,0,1-.268-.206l-3.439-9.1c-.6-1.565-1.092-1.833-2.513-1.833Zm26.774,2.966a.382.382,0,0,0-.433.432v2.039a.382.382,0,0,0,.433.432h8.568c1.483,0,1.833.412,1.833,1.462v.33h-7.95c-2.471,0-3.234.989-3.234,2.719v1.071c0,2.08.762,2.966,3.234,2.966h9.906c1.195,0,1.524-.309,1.524-1.668v-5.561c0-3.027-1.215-4.222-4.964-4.222Zm9.886,8.774H49.851c-.6,0-.824-.247-.824-.783v-.391c0-.494.227-.762.824-.762h6.941v1.359C56.791-196.7,56.647-196.532,56.276-196.532ZM66.759-209.3a.479.479,0,0,0-.535.535v14.375a.479.479,0,0,0,.535.535h2.41a.479.479,0,0,0,.535-.535v-3.954h3.769a1.48,1.48,0,0,1,1.5.68l2.451,3.481a.711.711,0,0,0,.721.33h2.78a.359.359,0,0,0,.288-.6l-2.925-4.057a4.774,4.774,0,0,0-1.318-1.256,5.63,5.63,0,0,0,1.092-1.195l2.677-3.728c.227-.309.1-.618-.227-.618h-2.78a.738.738,0,0,0-.721.391l-2.266,3.3c-.412.6-.659.659-1.524.659H69.7v-7.806a.479.479,0,0,0-.535-.535Zm20.472,4c-.371,0-.535.165-.535.535v10.38a.471.471,0,0,0,.535.535h2.389a.485.485,0,0,0,.556-.535v-10.38c0-.371-.185-.535-.556-.535Zm0-4.3a.479.479,0,0,0-.535.535v2.018a.471.471,0,0,0,.535.535h2.41a.471.471,0,0,0,.535-.535v-2.018a.479.479,0,0,0-.535-.535Zm14.211,4.3c-3.748,0-4.964,1.195-4.964,4.222v6.693a.479.479,0,0,0,.535.535h2.41a.479.479,0,0,0,.535-.535v-5.849c0-1.545.35-1.977,1.833-1.977h5.417c1.483,0,1.668.433,1.668,1.977v5.849a.479.479,0,0,0,.535.535h2.41a.479.479,0,0,0,.535-.535v-6.693c0-3.027-1.195-4.222-4.943-4.222Zm21.728,0c-3.748,0-4.964,1.195-4.964,4.222v3.007c0,3.027,1.215,4.222,4.964,4.222h8.918a.382.382,0,0,0,.433-.433v-2.06a.382.382,0,0,0-.433-.433h-8.568c-1.483,0-1.833-.412-1.833-1.462v-.371h9.989c.824,0,1.195-.288,1.195-1.174v-2.121c0-2.513-.762-3.4-3.6-3.4Zm-1.483,4.14c0-1.05.35-1.483,1.833-1.483h5.067c.638,0,.886.247.886.865v.762a.252.252,0,0,1-.288.288h-7.5Z" transform="translate(-17.536 209.61)" fill="#050a1f"></path>
        <path id="Path_2709" data-name="Path 2709" d="M.9-3.586A.541.541,0,0,0,.285-3v.269a.545.545,0,0,0,.611.6H2.333c.166,0,.239.088.239.258v.184c0,.158-.066.258-.243.258H.355c-.044,0-.066.022-.066.07v.284a.059.059,0,0,0,.066.066H2.414a.541.541,0,0,0,.619-.582v-.3a.545.545,0,0,0-.611-.6H.985c-.169,0-.243-.088-.243-.258v-.155c0-.158.066-.258.243-.258H2.871c.044,0,.066-.022.066-.07v-.284a.059.059,0,0,0-.066-.066ZM4.2-3c-.659,0-.869.206-.869.733v.527c0,.523.21.733.869.733h1.58a.049.049,0,0,0,.055-.055v-.254a.049.049,0,0,0-.055-.055H4.245c-.376,0-.483-.111-.483-.387v-.114h1.93c.144,0,.21-.052.21-.206v-.328C5.9-2.845,5.77-3,5.272-3Zm-.442.726c0-.28.107-.39.483-.39h.947c.225,0,.291.074.291.273v.169c0,.059-.026.077-.077.077H3.762ZM7.125-3c-.656,0-.866.21-.866.733v1.193a.059.059,0,0,0,.066.066H6.62a.059.059,0,0,0,.066-.066V-2.186c0-.339.107-.449.479-.449h.991a.049.049,0,0,0,.055-.055v-.254A.049.049,0,0,0,8.156-3ZM8.348-3c-.044,0-.063.037-.041.077L9.383-1.147a.248.248,0,0,0,.262.14h.243a.251.251,0,0,0,.262-.14l1.079-1.775c.018-.041,0-.077-.041-.077h-.335a.071.071,0,0,0-.074.041l-.961,1.58a.035.035,0,0,1-.037.022H9.762a.035.035,0,0,1-.037-.022l-.961-1.58C8.753-2.989,8.727-3,8.691-3Zm3.208,0c-.048,0-.066.022-.066.066v1.86c0,.044.018.066.066.066h.291c.048,0,.07-.022.07-.066v-1.86c0-.044-.022-.066-.07-.066Zm0-.733a.059.059,0,0,0-.066.066v.343c0,.048.022.07.066.07h.295c.044,0,.066-.022.066-.07v-.343a.059.059,0,0,0-.066-.066ZM12.882-3c-.431,0-.571.188-.571.49v.144c0,.309.155.483.567.483h1.26c.2,0,.262.077.262.2v.107c0,.155-.066.225-.262.225H12.367a.049.049,0,0,0-.055.055v.239a.049.049,0,0,0,.055.055h1.879c.431,0,.571-.18.571-.508V-1.7c0-.306-.155-.475-.567-.475H12.993c-.2,0-.262-.077-.262-.2V-2.44c0-.136.066-.21.262-.21h1.683a.049.049,0,0,0,.055-.055v-.239A.049.049,0,0,0,14.676-3Zm4.483-.586c-.74,0-1.02.265-1.02.972v.634c0,.707.28.972,1.02.972h1.617a.059.059,0,0,0,.066-.066v-.284c0-.048-.022-.07-.066-.07H17.369c-.438,0-.578-.14-.578-.586v-.114h2.17a.059.059,0,0,0,.066-.066v-.236c0-.048-.022-.066-.066-.066H16.79V-2.58c0-.446.14-.586.578-.586h1.613c.044,0,.066-.022.066-.07v-.284a.059.059,0,0,0-.066-.066ZM19.5-3.77a.059.059,0,0,0-.066.066v2.63a.059.059,0,0,0,.066.066H19.8a.059.059,0,0,0,.066-.066v-.781h.751a.484.484,0,0,1,.468.192l.46.611c.022.033.041.044.1.044h.332a.048.048,0,0,0,.037-.081l-.523-.689a.878.878,0,0,0-.287-.247.931.931,0,0,0,.258-.254l.471-.637c.029-.041.015-.085-.033-.085H21.56a.1.1,0,0,0-.1.052l-.416.578c-.122.162-.2.188-.464.188h-.722V-3.7A.059.059,0,0,0,19.8-3.77ZM22.352-3c-.048,0-.066.022-.066.066v1.86c0,.044.018.066.066.066h.291c.048,0,.07-.022.07-.066v-1.86c0-.044-.022-.066-.07-.066Zm0-.733a.059.059,0,0,0-.066.066v.343c0,.048.022.07.066.07h.295c.044,0,.066-.022.066-.07v-.343a.059.059,0,0,0-.066-.066ZM24.01-3c-.656,0-.866.21-.866.733V-.26a.059.059,0,0,0,.066.066h.295a.059.059,0,0,0,.066-.066v-.748H25.03c.656,0,.866-.206.866-.733v-.527c0-.523-.21-.733-.866-.733Zm-.438.814c0-.339.107-.449.479-.449h.939c.376,0,.479.111.479.449v.365c0,.339-.1.449-.479.449H23.572ZM27.163-3c-.656,0-.866.21-.866.733v1.193a.059.059,0,0,0,.066.066h.295a.059.059,0,0,0,.066-.066V-2.167c0-.335.107-.449.479-.449h.674v1.543a.059.059,0,0,0,.066.066h.295a.059.059,0,0,0,.066-.066V-2.617H29c.372,0,.46.114.46.449v1.094a.059.059,0,0,0,.066.066h.295a.059.059,0,0,0,.066-.066V-2.267c0-.523-.21-.733-.866-.733Zm3.19,0a.049.049,0,0,0-.055.055v.254a.049.049,0,0,0,.055.055h1.54c.376,0,.479.107.479.387v.088H30.8c-.431,0-.564.169-.564.471v.166c0,.361.133.516.564.516h1.735c.21,0,.269-.055.269-.291v-.969c0-.527-.214-.733-.869-.733Zm1.893,1.658h-1.33c-.2,0-.262-.074-.262-.239v-.085c0-.144.066-.221.262-.221h1.455v.405C32.371-1.376,32.342-1.342,32.246-1.342ZM34.025-3c-.656,0-.866.21-.866.733v1.193a.059.059,0,0,0,.066.066h.295a.059.059,0,0,0,.066-.066V-2.167c0-.335.107-.449.479-.449h.983c.376,0,.46.114.46.449v1.094a.059.059,0,0,0,.066.066h.295a.059.059,0,0,0,.066-.066V-2.267c0-.523-.21-.733-.866-.733Zm2.413-.77c-.048,0-.066.022-.066.066v2.63c0,.044.018.066.066.066h.291c.048,0,.07-.022.07-.066V-3.7c0-.044-.022-.066-.07-.066Zm.836.77a.049.049,0,0,0-.055.055v.254a.049.049,0,0,0,.055.055h1.54c.376,0,.479.107.479.387v.088H37.72c-.431,0-.564.169-.564.471v.166c0,.361.133.516.564.516h1.735c.21,0,.269-.055.269-.291v-.969c0-.527-.214-.733-.869-.733Zm1.893,1.658h-1.33c-.2,0-.262-.074-.262-.239v-.085c0-.144.066-.221.262-.221h1.455v.405C39.292-1.376,39.263-1.342,39.167-1.342ZM40.946-3c-.656,0-.866.21-.866.733v1.193a.059.059,0,0,0,.066.066h.295a.059.059,0,0,0,.066-.066V-2.186c0-.339.107-.449.479-.449h.991a.049.049,0,0,0,.055-.055v-.254A.049.049,0,0,0,41.978-3Zm1.429,0c-.048,0-.066.022-.066.066v1.86c0,.044.018.066.066.066h.291c.048,0,.07-.022.07-.066v-1.86c0-.044-.022-.066-.07-.066Zm2.608-.825c-.254,0-.365.173-.365.446v.221a.478.478,0,0,0,.2.431l.225.2-.416.21a.581.581,0,0,0-.354.575v.21c0,.365.184.527.479.527h.674a.645.645,0,0,0,.63-.28l.169-.206.512.449a.115.115,0,0,0,.1.037H47.2a.051.051,0,0,0,.033-.088l-.785-.67.674-.81c.037-.044.018-.1-.044-.1h-.287a.1.1,0,0,0-.092.041l-.527.626-.538-.46.35-.173c.232-.118.287-.236.287-.523v-.287a.349.349,0,0,0-.387-.376Zm.424,2.457h-.471c-.144,0-.236-.074-.236-.265v-.125a.364.364,0,0,1,.206-.346l.394-.2.645.564-.18.214A.367.367,0,0,1,45.407-1.368Zm-.368-1.761v-.133c0-.133.052-.206.158-.206h.512a.157.157,0,0,1,.173.173v.166a.234.234,0,0,1-.151.254l-.361.18-.228-.2A.245.245,0,0,1,45.039-3.129Zm3.5-.457c-.037,0-.048.033-.029.063L49.856-1.81v.737c0,.044.022.066.07.066h.32c.048,0,.07-.022.07-.066V-1.81l1.355-1.713c.022-.029.007-.063-.026-.063h-.39a.088.088,0,0,0-.077.037l-1.087,1.4-1.083-1.4a.078.078,0,0,0-.074-.037ZM52.313-3c-.659,0-.869.206-.869.733v.527c0,.523.21.733.869.733h1.58a.049.049,0,0,0,.055-.055v-.254a.049.049,0,0,0-.055-.055h-1.54c-.376,0-.483-.111-.483-.387v-.114H53.8c.144,0,.21-.052.21-.206v-.328c0-.438-.133-.593-.63-.593Zm-.442.726c0-.28.107-.39.483-.39H53.3c.225,0,.291.074.291.273v.169c0,.059-.026.077-.077.077H51.871ZM55.212-3c-.656,0-.866.206-.866.733v.527c0,.523.21.733.866.733h1.02c.656,0,.866-.21.866-.733V-3.7a.059.059,0,0,0-.066-.066h-.295a.059.059,0,0,0-.066.066V-3Zm.98,1.628h-.939c-.372,0-.479-.111-.479-.449v-.365c0-.339.107-.449.479-.449h1.418v.814C56.671-1.482,56.568-1.372,56.192-1.372ZM58.317-3c-.659,0-.869.206-.869.733v.527c0,.523.21.733.869.733H59.9a.049.049,0,0,0,.055-.055v-.254a.049.049,0,0,0-.055-.055h-1.54c-.376,0-.483-.111-.483-.387v-.114h1.93c.144,0,.21-.052.21-.206v-.328c0-.438-.133-.593-.63-.593Zm-.442.726c0-.28.107-.39.483-.39H59.3c.225,0,.291.074.291.273v.169c0,.059-.026.077-.077.077H57.875Zm2.571-1.5a.059.059,0,0,0-.066.066v2.63a.059.059,0,0,0,.066.066h.295a.059.059,0,0,0,.066-.066v-.781h.751a.484.484,0,0,1,.468.192l.46.611c.022.033.041.044.1.044h.332a.048.048,0,0,0,.037-.081l-.523-.689a.878.878,0,0,0-.287-.247.931.931,0,0,0,.258-.254l.471-.637C62.9-2.956,62.885-3,62.837-3h-.332a.1.1,0,0,0-.1.052l-.416.578c-.122.162-.2.188-.464.188h-.722V-3.7a.059.059,0,0,0-.066-.066Zm4.078.184a.1.1,0,0,0-.111.111v2.4a.059.059,0,0,0,.066.066H64.8a.059.059,0,0,0,.066-.066v-.755h1.61c.556,0,.781-.262.781-.755v-.25c0-.49-.225-.751-.781-.751Zm.346.457a.039.039,0,0,1,.044-.044h1.477c.3,0,.409.136.409.4v.144c0,.265-.111.4-.409.4H64.87ZM67.622-3a.049.049,0,0,0-.055.055v.254a.049.049,0,0,0,.055.055h1.54c.376,0,.479.107.479.387v.088H68.067c-.431,0-.564.169-.564.471v.166c0,.361.133.516.564.516H69.8c.21,0,.269-.055.269-.291v-.969c0-.527-.214-.733-.869-.733Zm1.893,1.658h-1.33c-.2,0-.262-.074-.262-.239v-.085c0-.144.066-.221.262-.221H69.64v.405C69.64-1.376,69.611-1.342,69.515-1.342ZM71.294-3c-.656,0-.866.21-.866.733v1.193a.059.059,0,0,0,.066.066h.295a.059.059,0,0,0,.066-.066V-2.186c0-.339.107-.449.479-.449h.991a.049.049,0,0,0,.055-.055v-.254A.049.049,0,0,0,72.325-3ZM73.43-3c-.659,0-.866.206-.866.733v.527c0,.523.206.733.866.733H74.9c.041,0,.055-.018.055-.055v-.254c0-.037-.015-.055-.055-.055H73.471c-.376,0-.479-.111-.479-.449v-.365c0-.339.1-.449.479-.449H74.9c.041,0,.055-.018.055-.055v-.254c0-.037-.015-.055-.055-.055Zm.295,2.144a.069.069,0,0,0-.074.07l-.07.707c0,.048.022.074.074.074h.166c.044,0,.066-.022.081-.07l.151-.7c.015-.055-.007-.081-.059-.081ZM75.32-3a.049.049,0,0,0-.055.055v.254a.049.049,0,0,0,.055.055h1.54c.376,0,.479.107.479.387v.088H75.766c-.431,0-.564.169-.564.471v.166c0,.361.133.516.564.516H77.5c.21,0,.269-.055.269-.291v-.969c0-.527-.214-.733-.869-.733Zm1.893,1.658h-1.33c-.2,0-.262-.074-.262-.239v-.085c0-.144.066-.221.262-.221h1.455v.405C77.338-1.376,77.309-1.342,77.213-1.342Zm2.682-2.243A.541.541,0,0,0,79.28-3v.269a.545.545,0,0,0,.611.6h1.437c.166,0,.239.088.239.258v.184c0,.158-.066.258-.243.258H79.35c-.044,0-.066.022-.066.07v.284a.059.059,0,0,0,.066.066h2.059a.541.541,0,0,0,.619-.582v-.3a.545.545,0,0,0-.611-.6H79.979c-.169,0-.243-.088-.243-.258v-.155c0-.158.066-.258.243-.258h1.886c.044,0,.066-.022.066-.07v-.284a.059.059,0,0,0-.066-.066ZM82.447-3a.049.049,0,0,0-.055.055v.254a.049.049,0,0,0,.055.055h1.54c.376,0,.479.107.479.387v.088H82.893c-.431,0-.564.169-.564.471v.166c0,.361.133.516.564.516h1.735c.21,0,.269-.055.269-.291v-.969c0-.527-.214-.733-.869-.733Zm1.893,1.658h-1.33c-.2,0-.262-.074-.262-.239v-.085c0-.144.066-.221.262-.221h1.455v.405C84.466-1.376,84.436-1.342,84.341-1.342ZM86.12-3c-.656,0-.866.21-.866.733v1.193a.059.059,0,0,0,.066.066h.295a.059.059,0,0,0,.066-.066V-2.167c0-.335.107-.449.479-.449h.983c.376,0,.46.114.46.449v1.094a.059.059,0,0,0,.066.066h.295a.059.059,0,0,0,.066-.066V-2.267c0-.523-.21-.733-.866-.733Zm2.405,1.514a.059.059,0,0,0-.066.066v.346a.059.059,0,0,0,.066.066h.295a.059.059,0,0,0,.066-.066V-1.42a.059.059,0,0,0-.066-.066Zm1.893-2.1a.059.059,0,0,0-.066.066v.295a.059.059,0,0,0,.066.066h1.208v2.085c0,.044.022.066.07.066h.324a.059.059,0,0,0,.066-.066V-3.158h1.208c.048,0,.07-.022.07-.066v-.295c0-.044-.022-.066-.07-.066ZM93.726-3c-.048,0-.066.022-.066.066v1.86c0,.044.018.066.066.066h.291c.048,0,.07-.022.07-.066v-1.86c0-.044-.022-.066-.07-.066Zm0-.733a.059.059,0,0,0-.066.066v.343c0,.048.022.07.066.07h.295c.044,0,.066-.022.066-.07v-.343a.059.059,0,0,0-.066-.066ZM95.306-3c-.659,0-.866.206-.866.733v.527c0,.523.206.733.866.733h1.473c.041,0,.055-.018.055-.055v-.254c0-.037-.015-.055-.055-.055H95.347c-.376,0-.479-.111-.479-.449v-.365c0-.339.1-.449.479-.449h1.433c.041,0,.055-.018.055-.055v-.254c0-.037-.015-.055-.055-.055Zm1.919,1.514a.059.059,0,0,0-.066.066v.346a.059.059,0,0,0,.066.066h.295a.059.059,0,0,0,.066-.066V-1.42a.059.059,0,0,0-.066-.066Zm2.044-2.1a.059.059,0,0,0-.066.066v1.54c0,.707.28.972,1.02.972h1.507c.048,0,.07-.022.07-.066v-.295c0-.044-.022-.066-.07-.066h-1.492c-.438,0-.578-.144-.578-.589v-1.5a.059.059,0,0,0-.066-.066ZM101.723-3a.049.049,0,0,0-.055.055V-2.7a.049.049,0,0,0,.055.055h.357v.913c0,.512.155.722.737.722h.427a.049.049,0,0,0,.055-.055v-.247a.049.049,0,0,0-.055-.055h-.357c-.3,0-.379-.111-.379-.365v-.913h.715a.049.049,0,0,0,.055-.055v-.247A.049.049,0,0,0,103.222-3h-.715v-.494c0-.048-.022-.07-.066-.07h-.295c-.044,0-.066.022-.066.07V-3ZM104.4-3c-.656,0-.866.206-.866.733v.527c0,.523.21.733.866.733h1.02c.656,0,.866-.21.866-.733V-3.7a.059.059,0,0,0-.066-.066h-.295a.059.059,0,0,0-.066.066V-3Zm.98,1.628h-.939c-.372,0-.479-.111-.479-.449v-.365c0-.339.107-.449.479-.449h1.418v.814C105.863-1.482,105.76-1.372,105.384-1.372Zm1.4-.114a.059.059,0,0,0-.066.066v.346a.059.059,0,0,0,.066.066h.295a.059.059,0,0,0,.066-.066V-1.42a.059.059,0,0,0-.066-.066Zm2.556-2.1a.541.541,0,0,0-.615.586v.269a.545.545,0,0,0,.611.6h1.437c.166,0,.239.088.239.258v.184c0,.158-.066.258-.243.258H108.8c-.044,0-.066.022-.066.07v.284a.059.059,0,0,0,.066.066h2.059a.541.541,0,0,0,.619-.582v-.3a.545.545,0,0,0-.611-.6h-1.437c-.169,0-.243-.088-.243-.258v-.155c0-.158.066-.258.243-.258h1.886c.044,0,.066-.022.066-.07v-.284a.059.059,0,0,0-.066-.066Zm.634,2.729a.069.069,0,0,0-.074.07l-.07.707c0,.048.022.074.074.074h.166c.044,0,.066-.022.081-.07l.151-.7c.015-.055-.007-.081-.059-.081ZM111.749-3a.049.049,0,0,0-.055.055V-2.7a.049.049,0,0,0,.055.055h.357v.913c0,.512.155.722.737.722h.427a.049.049,0,0,0,.055-.055v-.247a.049.049,0,0,0-.055-.055h-.357c-.3,0-.379-.111-.379-.365v-.913h.715A.049.049,0,0,0,113.3-2.7v-.247A.049.049,0,0,0,113.248-3h-.715v-.494c0-.048-.022-.07-.066-.07h-.295c-.044,0-.066.022-.066.07V-3Zm1.919,0c-.048,0-.066.022-.066.066v1.86c0,.044.018.066.066.066h.291c.048,0,.07-.022.07-.066v-1.86c0-.044-.022-.066-.07-.066Zm0-.733a.059.059,0,0,0-.066.066v.343c0,.048.022.07.066.07h.295c.044,0,.066-.022.066-.07v-.343a.059.059,0,0,0-.066-.066Zm.866,2.247a.059.059,0,0,0-.066.066v.346a.059.059,0,0,0,.066.066h.295a.059.059,0,0,0,.066-.066V-1.42a.059.059,0,0,0-.066-.066Z" transform="translate(-0.233 21.145)" fill="#050a1f"></path>
      </g>
    </g>
  </g>
</svg>
